<svg width="26" height="26" viewBox="0 0 26 26" fill="none" xmlns="http://www.w3.org/2000/svg">
<path d="M22.1759 25.2489L0.638835 3.71321C-0.207737 2.86281 -0.207737 1.4882 0.638835 0.637799C1.48929 -0.2126 2.86788 -0.2126 3.71445 0.637799L25.2516 22.1696C26.102 23.02 26.102 24.3985 25.2516 25.2489C24.4011 26.0993 23.0264 26.0993 22.1759 25.2489Z" fill="#888"/>
<path d="M0.637841 22.1696L22.1749 0.637799C23.0254 -0.2126 24.4001 -0.2126 25.2506 0.637799C26.101 1.4882 26.101 2.86281 25.2506 3.71321L3.71346 25.2489C2.86689 26.0954 1.4883 26.0954 0.637841 25.2489C-0.212614 24.3985 -0.212614 23.02 0.637841 22.1696Z" fill="#888"/>
</svg>
