<svg width="167" height="168" viewBox="0 0 167 168" fill="none" xmlns="http://www.w3.org/2000/svg">
<path d="M83.3572 163.929C127.396 163.929 163.097 128.228 163.097 84.1892C163.097 40.15 127.396 4.44922 83.3572 4.44922C39.318 4.44922 3.61719 40.15 3.61719 84.1892C3.61719 128.228 39.318 163.929 83.3572 163.929Z" stroke="url(#paint0_linear_4_14862)" stroke-width="7" stroke-miterlimit="10"/>
<path d="M109.104 124.116H108.27C106.394 121.093 104.622 118.175 102.746 115.152C105.873 113.693 108.687 112.233 111.71 110.774C109.521 109.002 109.521 109.002 107.332 109.94C90.9673 116.611 74.498 116.611 58.2373 109.835C56.4653 109.106 55.423 109.21 54.1722 110.982C57.0908 112.337 59.9052 113.796 63.0322 115.256C61.156 118.278 59.3839 121.302 57.5077 124.22H56.6738C56.0483 123.908 55.5272 123.594 54.9018 123.386C46.7715 120.676 39.2666 116.819 32.2828 111.92C31.032 110.982 30.5108 110.044 30.5108 108.585C30.5108 106.605 30.3022 104.519 30.0938 102.539C30.0938 102.018 30.0938 101.497 30.0938 100.871C30.0938 100.037 30.3022 99.0994 30.3022 98.2655C30.8233 82.6302 35.6182 68.4538 43.6443 55.1117C45.4163 52.1931 47.5011 50.213 50.7324 49.2749C56.2569 47.7114 61.7812 46.044 67.3057 44.4805C67.6184 44.4805 67.8269 44.4805 68.1396 44.4805C68.8693 45.9398 69.5991 47.3982 70.1203 48.8575C70.5372 50.0041 71.1625 50.0047 72.3091 50.0047C77.9378 49.692 83.5666 49.5878 89.091 49.4836C91.0715 49.4836 93.4688 50.5261 94.7197 49.6922C96.1789 48.7541 96.596 46.2525 97.4299 44.4805C97.7426 44.4805 97.9511 44.4805 98.2638 44.4805C98.4723 44.5847 98.6807 44.793 98.9934 44.793C105.56 45.9396 111.814 47.9196 117.86 50.6297C118.589 50.9424 119.424 51.4636 119.84 52.1933C126.824 62.6168 131.827 73.7706 133.808 86.1746C134.642 91.1779 134.955 96.285 135.476 101.393V102.644C135.372 104.624 135.059 106.604 135.163 108.48C135.163 110.148 134.746 111.295 133.183 112.129C129.326 114.318 125.573 116.923 121.612 118.904C117.547 120.989 113.169 122.448 108.896 124.22L109.104 124.116ZM109.938 88.2593C109.938 83.1518 106.811 78.8777 102.329 77.9396C97.4298 76.8972 92.7391 80.0243 91.2798 85.2361C89.8205 90.7605 92.7392 96.8058 97.8467 98.3693C103.997 100.246 109.938 95.2431 109.938 88.2593ZM65.3253 98.6828C70.4329 98.6828 74.498 94.6177 74.9149 88.7805C75.3319 83.673 71.9963 78.8781 67.3057 77.8358C62.7194 76.7934 58.3417 79.5031 56.5697 84.1937C54.068 90.969 58.6542 98.5786 65.221 98.6828H65.3253Z" fill="url(#paint1_linear_4_14862)"/>
<defs>
<linearGradient id="paint0_linear_4_14862" x1="-0.031049" y1="84.1892" x2="166.745" y2="84.1892" gradientUnits="userSpaceOnUse">
<stop stop-color="#8F00FF"/>
<stop offset="1" stop-color="#F17EFF"/>
</linearGradient>
<linearGradient id="paint1_linear_4_14862" x1="30.198" y1="84.1941" x2="135.684" y2="84.1941" gradientUnits="userSpaceOnUse">
<stop stop-color="#8F00FF"/>
<stop offset="1" stop-color="#F17EFF"/>
</linearGradient>
</defs>
</svg>
