<svg width="167" height="168" viewBox="0 0 167 168" fill="none" xmlns="http://www.w3.org/2000/svg">
<path d="M121.075 55.9418C120.554 59.7986 119.928 64.5934 119.199 69.4924C116.905 84.5023 114.717 99.5114 112.319 114.521C112.006 116.606 111.277 118.795 110.339 120.775C108.879 123.694 106.378 124.841 103.251 123.902C100.853 123.173 98.5601 122.027 96.4754 120.672C88.5536 115.46 80.7359 110.144 72.9183 104.932C68.6446 102.014 68.2276 98.7818 72.0843 95.2378C79.2766 88.4625 86.4688 81.792 93.661 75.0167C95.0161 73.6616 96.3712 72.3066 97.7262 70.8473C98.3516 70.1176 98.977 69.2834 98.2474 68.3452C97.4135 67.3029 96.4754 67.8241 95.5373 68.3452C93.9738 69.3876 92.4102 70.3261 90.8467 71.3685C82.7164 76.8929 74.586 82.5217 66.4556 88.0461C63.954 89.8181 61.3481 91.4861 58.638 92.9454C55.4067 94.7174 52.0712 95.0295 48.5272 93.8829C44.462 92.6321 40.2926 91.6937 36.1232 90.5472C34.6639 90.1302 33.2046 89.6095 31.9537 88.8798C29.869 87.7332 29.5563 85.7527 31.4326 84.1892C32.5792 83.1469 34.0385 82.4174 35.3936 81.792C56.3449 72.8278 77.4003 63.7595 98.3516 54.8995C102.521 53.1275 106.69 51.5631 110.86 49.8954C111.902 49.4784 112.945 49.1663 113.987 48.9579C118.677 48.0198 121.075 50.1047 120.971 55.9418H121.075Z" fill="url(#paint0_linear_4_14856)"/>
<path d="M83.4432 163.929C127.482 163.929 163.183 128.228 163.183 84.1892C163.183 40.15 127.482 4.44922 83.4432 4.44922C39.4039 4.44922 3.70312 40.15 3.70312 84.1892C3.70312 128.228 39.4039 163.929 83.4432 163.929Z" stroke="url(#paint1_linear_4_14856)" stroke-width="7" stroke-miterlimit="10"/>
<defs>
<linearGradient id="paint0_linear_4_14856" x1="30.286" y1="86.3781" x2="121.075" y2="86.3781" gradientUnits="userSpaceOnUse">
<stop stop-color="#8F00FF"/>
<stop offset="1" stop-color="#F17EFF"/>
</linearGradient>
<linearGradient id="paint1_linear_4_14856" x1="0.0548885" y1="84.1892" x2="166.831" y2="84.1892" gradientUnits="userSpaceOnUse">
<stop stop-color="#8F00FF"/>
<stop offset="1" stop-color="#F17EFF"/>
</linearGradient>
</defs>
</svg>
