<svg width="168" height="168" viewBox="0 0 168 168" fill="none" xmlns="http://www.w3.org/2000/svg">
<path d="M88.6949 72.6179C90.3626 70.8459 91.9263 69.1777 93.4898 67.51C100.474 60.005 107.457 52.5005 114.337 44.9955C115.796 43.432 117.255 42.4933 119.444 42.806C120.695 43.0145 122.05 42.806 124.135 42.806C113.294 54.5846 102.767 65.8422 92.1347 77.4123C104.018 93.3603 115.9 109.204 128.2 125.673C126.949 125.673 126.22 125.673 125.49 125.673C118.298 125.673 111.105 125.673 103.809 125.673C102.245 125.673 101.412 125.152 100.578 123.901C93.4897 114.311 86.2975 104.826 79.2095 95.2361C78.6883 94.6107 78.2714 93.9853 77.5417 93.1514C73.9977 97.0081 70.4538 100.761 67.014 104.513C61.1768 110.768 55.3397 117.021 49.7109 123.38C48.2517 124.943 46.7923 125.882 44.6034 125.569C43.2483 125.465 41.8933 125.569 39.8086 125.569C51.5872 112.853 62.8446 100.761 74.2063 88.4608C62.9488 73.3467 51.6913 58.3372 40.2254 43.0147C41.0593 43.0147 41.5805 42.806 42.1017 42.806C49.6067 42.806 57.1116 42.806 64.6165 42.806C65.5546 42.806 66.8055 43.536 67.431 44.2657C74.102 53.0215 80.5646 61.7774 87.2357 70.5332C87.7568 71.1586 88.1738 71.7834 88.9034 72.513L88.6949 72.6179ZM116.63 119.836C115.9 118.794 115.483 118.168 115.066 117.543C109.646 110.246 104.122 102.95 98.7016 95.6535C87.3399 80.5394 76.0824 65.4253 64.7207 50.3111C64.1996 49.6857 63.47 48.6438 62.8446 48.6438C59.1963 48.4353 55.5481 48.6438 51.4829 48.6438C52.2125 49.6861 52.6295 50.3107 53.1506 50.9361C55.4438 53.959 57.737 57.0868 60.0301 60.1097C74.6231 79.6017 89.216 99.0933 103.809 118.585C104.226 119.211 105.06 119.836 105.685 119.836C109.229 119.941 112.669 119.836 116.734 119.836H116.63Z" fill="url(#paint0_linear_4_14859)"/>
<path d="M83.9002 163.929C127.939 163.929 163.64 128.228 163.64 84.1892C163.64 40.15 127.939 4.44922 83.9002 4.44922C39.861 4.44922 4.16016 40.15 4.16016 84.1892C4.16016 128.228 39.861 163.929 83.9002 163.929Z" stroke="url(#paint1_linear_4_14859)" stroke-width="7" stroke-miterlimit="10"/>
<defs>
<linearGradient id="paint0_linear_4_14859" x1="39.7044" y1="84.1874" x2="128.096" y2="84.1874" gradientUnits="userSpaceOnUse">
<stop stop-color="#8F00FF"/>
<stop offset="1" stop-color="#F17EFF"/>
</linearGradient>
<linearGradient id="paint1_linear_4_14859" x1="0.51192" y1="84.1892" x2="167.288" y2="84.1892" gradientUnits="userSpaceOnUse">
<stop stop-color="#8F00FF"/>
<stop offset="1" stop-color="#F17EFF"/>
</linearGradient>
</defs>
</svg>
